<?xml version="1.0" encoding="utf-8"?>
<!-- Generator: Adobe Illustrator 22.0.0, SVG Export Plug-In . SVG Version: 6.00 Build 0)  -->
<svg version="1.1" id="Calque_1" xmlns="http://www.w3.org/2000/svg" xmlns:xlink="http://www.w3.org/1999/xlink" x="0px" y="0px"
	 viewBox="0 0 479 103" style="enable-background:new 0 0 479 103;" xml:space="preserve">
<style type="text/css">
	.st0{fill:#940026;}
</style>
<g id="Page-1">
	<g id="logo">
		<path id="Fill-2" class="st0" d="M65,68l-1.3,19.8H6.8V87c1.6-0.1,5.8-0.5,7.2-1.1c2.3-0.9,3-2.6,3-4.7V28.4c0-2.1-0.6-3.8-3-4.8
			c-1.7-0.8-5.4-1.2-7.2-1.3v-0.7h33v0.7c-1.7,0.1-5.2,0.2-7,0.8c-2.4,0.8-3,2.7-3,4.8v50c0,7.7,1.7,8.6,10.9,8.6
			c5.9,0,11.2-0.2,13.4-2.3c3-3.1,8.4-12.5,10.1-16.3L65,68"/>
		<path id="Fill-3" class="st0" d="M66.1,87.7V87c2.2-0.1,5.9-0.6,7.3-1.1c2.3-0.8,3-2.4,3-4.5v-53c0-2.1-0.6-4-3-4.8
			c-1.7-0.7-5.1-1.2-7.3-1.3v-0.7h54.7v16.1h-1c-1.3-4.4-7.5-13.9-12-14.5c-2.3-0.3-6.1-0.5-9.1-0.5h-9.5v30.2h8.1
			c5.4,0,7.2-1.7,8.3-3c1.7-1.6,3.7-7.3,4.1-9.8h1v27.2h-1c-0.3-2.9-2.7-8.8-4.1-10.3c-1.3-1.5-3.1-3-8.3-3h-8.1v24
			c0,7.6,1.6,8.5,10.9,8.5c6.1,0,12.6,0.1,14.9-2.2c3.4-3.5,8.5-12.8,10-16h0.9l-1.3,19.4L66.1,87.7"/>
		<path id="Fill-4" class="st0" d="M208.6,38.9h-0.9c-1.2-4.3-7.1-15.2-11.2-15.8c-2.2-0.3-5-0.4-7.5-0.4h-4.3V81
			c0,2.1,0.8,3.9,3,4.8c1.2,0.5,6.1,1.2,7.8,1.3v0.7h-34.6V87c1.7-0.1,6.6-0.6,7.8-1.1c2.3-0.9,3-2.7,3-4.8V22.8h-4.2
			c-2.2,0-5.3,0.1-7.5,0.4c-4.2,0.6-10.2,11.5-11.3,15.8h-0.9V21.6h60.5L208.6,38.9"/>
		<path id="Fill-5" class="st0" d="M210.6,87.7V87c2.2-0.1,5.9-0.6,7.3-1.1c2.3-0.8,3-2.4,3-4.5v-53c0-2.1-0.6-4-3-4.8
			c-1.7-0.7-5.1-1.2-7.3-1.3v-0.7h54.7v16.1h-1c-1.3-4.4-7.5-13.9-12-14.5c-2.3-0.3-6.1-0.5-9.1-0.5h-9.5v30.2h8.1
			c5.4,0,7.2-1.7,8.3-3c1.7-1.6,3.7-7.3,4.1-9.8h1v27.2h-1c-0.3-2.9-2.7-8.8-4.1-10.3c-1.3-1.5-3.1-3-8.3-3h-8.1v24
			c0,7.6,1.6,8.5,10.9,8.5c6.1,0,12.6,0.1,14.9-2.2c3.4-3.5,8.5-12.8,10-16h0.9l-1.3,19.4L210.6,87.7"/>
		<path id="Fill-6" class="st0" d="M358.7,87.7h-34.1V87c1.6-0.1,6.7-0.5,8-1.2c2.2-1.2,3.1-2.7,3.1-4.9V27l-24.4,59.6h-1.7
			c-1-3-3.4-10-4.9-13.5l-19.6-44.7v43.9c0,7.4,1.1,10.9,3.2,12.8c1.6,1.4,8,1.8,9.8,1.9v0.7h-26.5V87c1.6-0.2,6.6-0.2,8.9-1.8
			c2.2-1.6,3.1-5.4,3.1-12.8V32.7c0-4-1-6.7-2.9-8.2c-2.3-1.8-6-2.1-8.6-2.2v-0.7h23.5l21.2,47.6L333,29.8c1.5-3.5,2-7.2,2.1-8.2
			h23.5v0.7c-1.7,0.1-5.3,0.6-7.1,1.2c-2.4,0.8-3,2.6-3,4.7V81c0,2.1,0.8,3.7,3,4.7c1.1,0.6,5.3,1.3,7.2,1.4V87.7"/>
		<path id="Fill-7" class="st0" d="M392.9,58h-6.1v23.1c0,2.1,0.7,4,3,4.8c1.2,0.5,4.9,1,7.4,1.1v0.7h-33.4V87
			c1.7-0.1,5.9-0.6,7.2-1.1c2.3-0.9,3-2.6,3-4.7V28.4c0-2.1-0.6-4-3-4.8c-2.1-0.8-5.6-1.2-7.4-1.3v-0.7h33.6
			c13.6,0,22.5,5.5,22.5,16.1C419.6,51.4,406.4,58,392.9,58L392.9,58L392.9,58z M391.8,22.9h-5v33.8h3.4c12.4,0,15-10.2,15-16.6
			C405.2,31.6,402.2,22.9,391.8,22.9z"/>
		<path id="Fill-8" class="st0" d="M449.1,89.1c-9.8,0-16.3-3.1-19.5-5.2l-3.2,4.7h-1l-0.6-23.4h0.9c4.7,12.4,11.7,22.7,22.9,22.7
			c9.2,0,13.1-6.5,13.1-13.5c0-5.8-3.9-10.2-10.4-12.6c-4.9-1.9-8.8-3.2-13.2-5c-7.8-3.4-11.6-9.5-11.6-17.9
			c0-10.4,8.5-18.7,21.1-18.7c7.6,0,14,2.4,17.3,4.8l3-4.4h1l0.4,22.5h-0.9c-3.7-11.3-9.5-21.7-20.6-21.7c-6.1,0-11.2,4.6-11.2,11.5
			c0,5.8,3.2,9.6,9.9,12.6c4.4,2,9.1,3.3,12.9,4.9c7.9,3.6,13.1,7.9,13.1,18.2C472.6,80.5,462.8,89.1,449.1,89.1"/>
	</g>
</g>
</svg>
